<?xml version="1.0" ?><svg height="60px" version="1.1" viewBox="0 0 60 60" width="60px" xmlns="http://www.w3.org/2000/svg" xmlns:xlink="http://www.w3.org/1999/xlink"><title/><desc/><defs/><g fill="none" fill-rule="evenodd" id="Page-1" stroke="none" stroke-width="1"><g id="Social_icons" transform="translate(-722.000000, -1355.000000)"><g id="Dailymotion" transform="translate(722.000000, 1355.000000)"><circle cx="30" cy="30" fill="#0064DD" id="Oval" r="30"/><g fill="#FFFFFE" id="Square_Icon" transform="translate(21.000000, 15.000000)"><path d="M12.5525075,24.9188445 C9.29271076,24.9188445 6.95859056,22.5945821 6.95859056,19.5362238 C6.95859056,16.6002897 9.29271076,14.1128494 12.3110635,14.1128494 C15.2891151,14.1128494 17.5829745,16.4779472 17.5829745,19.6177718 C17.5829745,22.6353357 15.2891151,24.9188445 12.5525075,24.9188445 L12.5525075,24.9188445 Z M23.7,0.3 L17.3415305,1.6349354 L17.3415305,11.1768336 C15.8927453,9.30110587 13.8805505,8.40403648 11.2646851,8.40403648 C8.52807753,8.40403648 6.07321515,9.42344838 4.06097997,11.4215186 C1.80738145,13.6235203 0.6,16.4371118 0.6,19.5770182 C0.6,23.0023224 1.88774177,25.9382973 4.38290532,28.1810117 C6.27439833,29.8936842 8.52807753,30.75 11.1439429,30.75 C13.7195475,30.75 15.6513013,30.0567803 17.5427136,28.1810117 L17.5427136,30.6276575 L23.7,30.6276575 L23.7,0.3 L23.7,0.3 Z" id="Fill-3"/></g></g></g></g></svg>