<?xml version="1.0" encoding="UTF-8" standalone="no"?>
<svg
   xmlns:dc="http://purl.org/dc/elements/1.1/"
   xmlns:cc="http://creativecommons.org/ns#"
   xmlns:rdf="http://www.w3.org/1999/02/22-rdf-syntax-ns#"
   xmlns:svg="http://www.w3.org/2000/svg"
   xmlns="http://www.w3.org/2000/svg"
   xmlns:sodipodi="http://sodipodi.sourceforge.net/DTD/sodipodi-0.dtd"
   xmlns:inkscape="http://www.inkscape.org/namespaces/inkscape"
   width="14"
   height="14"
   viewBox="0 0 14 14"
   id="svg3676"
   version="1.1"
   inkscape:version="0.91 r13725"
   sodipodi:docname="Youtube.svg">
  <metadata
     id="metadata3684">
    <rdf:RDF>
      <cc:Work
         rdf:about="">
        <dc:format>image/svg+xml</dc:format>
        <dc:type
           rdf:resource="http://purl.org/dc/dcmitype/StillImage" />
        <dc:title></dc:title>
      </cc:Work>
    </rdf:RDF>
  </metadata>
  <defs
     id="defs3682" />
  <sodipodi:namedview
     pagecolor="#ffffff"
     bordercolor="#666666"
     borderopacity="1"
     objecttolerance="10"
     gridtolerance="10"
     guidetolerance="10"
     inkscape:pageopacity="0"
     inkscape:pageshadow="2"
     inkscape:window-width="1366"
     inkscape:window-height="702"
     id="namedview3680"
     showgrid="true"
     inkscape:zoom="25.5"
     inkscape:cx="7.1295603"
     inkscape:cy="7.1399839"
     inkscape:window-x="0"
     inkscape:window-y="27"
     inkscape:window-maximized="1"
     inkscape:current-layer="svg3676">
    <inkscape:grid
       type="xygrid"
       id="grid3686" />
  </sodipodi:namedview>
  <path
     d="m 10,7.0049024 q 0,-0.28906 -0.234375,-0.42187 l -4,-2.5 Q 5.5234375,3.9267824 5.2578125,4.0674024 5,4.2080324 5,4.5049024 l 0,5 q 0,0.29688 0.2578125,0.4375 0.125,0.0625 0.2421875,0.0625 0.15625,0 0.265625,-0.0781 l 4,-2.5 Q 10,7.2939624 10,7.0049024 Z m 4,0 q 0,0.75 -0.0078,1.17188 -0.0078,0.42187 -0.06641,1.0664 -0.05859,0.64453 -0.175781,1.1523526 -0.125,0.570315 -0.539062,0.960937 -0.414063,0.39063 -0.96875,0.45313 -1.734384,0.19531 -5.242197,0.19531 -3.5078125,0 -5.2421875,-0.19531 Q 1.203125,11.747102 0.78515625,11.356472 0.3671875,10.96585 0.2421875,10.395535 0.1328125,9.8877124 0.07421875,9.2431824 0.015625,8.5986524 0.0078125,8.1767824 0,7.7549024 0,7.0049024 q 0,-0.75 0.0078125,-1.17187 0.0078125,-0.42188 0.06640625,-1.06641 Q 0.1328125,4.1220924 0.25,3.6142824 q 0.125,-0.57032 0.5390625,-0.96094 0.4140625,-0.39063 0.96875,-0.45313 Q 3.4921875,2.0049023 7,2.0049023 q 3.507813,0 5.242188,0.1953101 0.554687,0.0625 0.972656,0.45313 0.417969,0.39062 0.542969,0.96094 0.109375,0.50781 0.167968,1.15234 0.05859,0.64453 0.06641,1.06641 Q 14,6.2549024 14,7.0049024 Z"
     id="path3678"
     style="fill:#e52d27;fill-opacity:1;fill-rule:nonzero;stroke:none"
     inkscape:connector-curvature="0" />
</svg>
